<mxfile host="Electron" modified="2023-06-28T11:59:55.388Z" agent="Mozilla/5.0 (Windows NT 10.0; Win64; x64) AppleWebKit/537.36 (KHTML, like Gecko) draw.io/21.5.0 Chrome/112.0.5615.204 Electron/24.5.1 Safari/537.36" etag="G5Ahxm7n2Esm9xkJtkXg" version="21.5.0" type="device">
  <diagram name="Page-1" id="e7e014a7-5840-1c2e-5031-d8a46d1fe8dd">
    <mxGraphModel dx="2058" dy="1188" grid="1" gridSize="10" guides="1" tooltips="1" connect="1" arrows="1" fold="1" page="1" pageScale="1" pageWidth="1169" pageHeight="826" background="none" math="0" shadow="0">
      <root>
        <mxCell id="0" />
        <mxCell id="1" parent="0" />
        <mxCell id="33" value="&lt;&lt; file &gt;&gt;&#xa;3DTiles withÂ &#xa;Sunlight batch table" style="" parent="1" vertex="1">
          <mxGeometry x="740" y="318" width="120" height="70" as="geometry" />
        </mxCell>
        <mxCell id="xqJaoPUtZrrg-3-AXKoa-38" value="act&lt;span style=&quot;font-weight: normal;&quot;&gt; Computes and Display Sunlight impact (CityGML CityGML, File Sun_Positions, Date Start_Date, Date End_Date)&lt;/span&gt;" style="swimlane;whiteSpace=wrap;html=1;" parent="1" vertex="1">
          <mxGeometry x="40" y="270" width="1120" height="230" as="geometry" />
        </mxCell>
        <mxCell id="EWjZ0ozyYWg2ALglQimF-50" style="edgeStyle=orthogonalEdgeStyle;rounded=0;orthogonalLoop=1;jettySize=auto;html=1;strokeColor=#FF0000;" parent="xqJaoPUtZrrg-3-AXKoa-38" target="EWjZ0ozyYWg2ALglQimF-41" edge="1">
          <mxGeometry relative="1" as="geometry">
            <mxPoint x="815" y="83" as="sourcePoint" />
          </mxGeometry>
        </mxCell>
        <mxCell id="38" value="" style="ellipse;shape=endState;fillColor=#000000;strokeColor=#ff0000" parent="xqJaoPUtZrrg-3-AXKoa-38" vertex="1">
          <mxGeometry x="1045" y="68" width="30" height="30" as="geometry" />
        </mxCell>
        <mxCell id="5" value="" style="ellipse;shape=startState;fillColor=#000000;strokeColor=#FF0000;" parent="xqJaoPUtZrrg-3-AXKoa-38" vertex="1">
          <mxGeometry x="40" y="68" width="30" height="30" as="geometry" />
        </mxCell>
        <mxCell id="7" value="py3DTiler&#xa;Converts to 3DTiles" style="rounded=1;arcSize=40;" parent="xqJaoPUtZrrg-3-AXKoa-38" vertex="1">
          <mxGeometry x="120" y="53" width="135" height="60" as="geometry" />
        </mxCell>
        <mxCell id="EWjZ0ozyYWg2ALglQimF-46" style="edgeStyle=orthogonalEdgeStyle;rounded=0;orthogonalLoop=1;jettySize=auto;html=1;entryX=0;entryY=0.5;entryDx=0;entryDy=0;strokeColor=#FF0000;" parent="xqJaoPUtZrrg-3-AXKoa-38" source="5" target="7" edge="1">
          <mxGeometry relative="1" as="geometry">
            <Array as="points" />
          </mxGeometry>
        </mxCell>
        <mxCell id="8" value="&lt;&lt; file &gt;&gt;&#xa;3DTiles" style="" parent="xqJaoPUtZrrg-3-AXKoa-38" vertex="1">
          <mxGeometry x="315" y="58" width="120" height="50" as="geometry" />
        </mxCell>
        <mxCell id="EWjZ0ozyYWg2ALglQimF-45" style="edgeStyle=orthogonalEdgeStyle;rounded=0;orthogonalLoop=1;jettySize=auto;html=1;entryX=0;entryY=0.5;entryDx=0;entryDy=0;strokeColor=#FF0000;" parent="xqJaoPUtZrrg-3-AXKoa-38" source="7" target="8" edge="1">
          <mxGeometry relative="1" as="geometry" />
        </mxCell>
        <mxCell id="EWjZ0ozyYWg2ALglQimF-49" style="edgeStyle=orthogonalEdgeStyle;rounded=0;orthogonalLoop=1;jettySize=auto;html=1;strokeColor=#FF0000;" parent="xqJaoPUtZrrg-3-AXKoa-38" source="10" edge="1">
          <mxGeometry relative="1" as="geometry">
            <mxPoint x="695" y="83" as="targetPoint" />
          </mxGeometry>
        </mxCell>
        <mxCell id="10" value="pySunlight&#xa;Computes Sunlight" style="rounded=1;arcSize=40;" parent="xqJaoPUtZrrg-3-AXKoa-38" vertex="1">
          <mxGeometry x="495" y="58" width="135" height="50" as="geometry" />
        </mxCell>
        <mxCell id="EWjZ0ozyYWg2ALglQimF-48" style="edgeStyle=orthogonalEdgeStyle;rounded=0;orthogonalLoop=1;jettySize=auto;html=1;entryX=0;entryY=0.5;entryDx=0;entryDy=0;strokeColor=#FF0000;" parent="xqJaoPUtZrrg-3-AXKoa-38" source="8" target="10" edge="1">
          <mxGeometry relative="1" as="geometry" />
        </mxCell>
        <mxCell id="EWjZ0ozyYWg2ALglQimF-47" style="edgeStyle=orthogonalEdgeStyle;rounded=0;orthogonalLoop=1;jettySize=auto;html=1;entryX=0;entryY=0.5;entryDx=0;entryDy=0;strokeColor=#FF0000;" parent="xqJaoPUtZrrg-3-AXKoa-38" source="EWjZ0ozyYWg2ALglQimF-41" target="38" edge="1">
          <mxGeometry relative="1" as="geometry">
            <Array as="points" />
          </mxGeometry>
        </mxCell>
        <mxCell id="EWjZ0ozyYWg2ALglQimF-41" value="UD-Viz&#xa;Display result" style="rounded=1;arcSize=40;" parent="xqJaoPUtZrrg-3-AXKoa-38" vertex="1">
          <mxGeometry x="875" y="58" width="120" height="50" as="geometry" />
        </mxCell>
        <mxCell id="EWjZ0ozyYWg2ALglQimF-52" style="edgeStyle=orthogonalEdgeStyle;rounded=0;orthogonalLoop=1;jettySize=auto;html=1;entryX=0.5;entryY=1;entryDx=0;entryDy=0;strokeColor=#FF0000;" parent="xqJaoPUtZrrg-3-AXKoa-38" source="EWjZ0ozyYWg2ALglQimF-51" target="7" edge="1">
          <mxGeometry relative="1" as="geometry" />
        </mxCell>
        <mxCell id="EWjZ0ozyYWg2ALglQimF-51" value="&lt;&lt; file &gt;&gt;&#xa;CityGML" style="" parent="xqJaoPUtZrrg-3-AXKoa-38" vertex="1">
          <mxGeometry x="127.5" y="209.99999999999997" width="120" height="50" as="geometry" />
        </mxCell>
        <mxCell id="EWjZ0ozyYWg2ALglQimF-53" value="&lt;&lt; file &gt;&gt;&#xa;Sun_Positions" style="" parent="xqJaoPUtZrrg-3-AXKoa-38" vertex="1">
          <mxGeometry x="650" y="210" width="120" height="50" as="geometry" />
        </mxCell>
        <mxCell id="EWjZ0ozyYWg2ALglQimF-54" style="edgeStyle=orthogonalEdgeStyle;rounded=0;orthogonalLoop=1;jettySize=auto;html=1;strokeColor=#FF0000;exitX=0.5;exitY=0;exitDx=0;exitDy=0;" parent="xqJaoPUtZrrg-3-AXKoa-38" source="EWjZ0ozyYWg2ALglQimF-53" edge="1">
          <mxGeometry relative="1" as="geometry">
            <mxPoint x="600" y="110" as="targetPoint" />
            <Array as="points">
              <mxPoint x="710" y="170" />
              <mxPoint x="600" y="170" />
            </Array>
          </mxGeometry>
        </mxCell>
        <mxCell id="xqJaoPUtZrrg-3-AXKoa-41" value="Start_Date" style="" parent="xqJaoPUtZrrg-3-AXKoa-38" vertex="1">
          <mxGeometry x="350" y="215" width="120" height="40" as="geometry" />
        </mxCell>
        <mxCell id="xqJaoPUtZrrg-3-AXKoa-44" style="edgeStyle=orthogonalEdgeStyle;rounded=0;orthogonalLoop=1;jettySize=auto;html=1;strokeColor=#FF0000;exitX=0.5;exitY=0;exitDx=0;exitDy=0;" parent="xqJaoPUtZrrg-3-AXKoa-38" source="xqJaoPUtZrrg-3-AXKoa-41" target="10" edge="1">
          <mxGeometry relative="1" as="geometry">
            <Array as="points">
              <mxPoint x="410" y="170" />
              <mxPoint x="520" y="170" />
            </Array>
          </mxGeometry>
        </mxCell>
        <mxCell id="xqJaoPUtZrrg-3-AXKoa-42" value="End_Date" style="" parent="1" vertex="1">
          <mxGeometry x="540" y="485" width="120" height="40" as="geometry" />
        </mxCell>
        <mxCell id="xqJaoPUtZrrg-3-AXKoa-43" style="edgeStyle=orthogonalEdgeStyle;rounded=0;orthogonalLoop=1;jettySize=auto;html=1;strokeColor=#FF0000;" parent="1" source="xqJaoPUtZrrg-3-AXKoa-42" target="10" edge="1">
          <mxGeometry relative="1" as="geometry">
            <Array as="points">
              <mxPoint x="600" y="400" />
              <mxPoint x="600" y="400" />
            </Array>
          </mxGeometry>
        </mxCell>
      </root>
    </mxGraphModel>
  </diagram>
</mxfile>
